Coordinates
version=1
nRows=14
nColumns=40
inDegrees=yes

Units are S.I. units (second, meters, Newtons, ...)
Angles are in degrees.

endheader
time	pelvis_tilt	pelvis_list	pelvis_rotation	pelvis_tx	pelvis_ty	pelvis_tz	hip_flexion_r	hip_adduction_r	hip_rotation_r	knee_angle_r	knee_angle_r_beta	ankle_angle_r	subtalar_angle_r	mtp_angle_r	hip_flexion_l	hip_adduction_l	hip_rotation_l	knee_angle_l	knee_angle_l_beta	ankle_angle_l	subtalar_angle_l	mtp_angle_l	lumbar_extension	lumbar_bending	lumbar_rotation	arm_flex_r	arm_add_r	arm_rot_r	elbow_flex_r	pro_sup_r	wrist_flex_r	wrist_dev_r	arm_flex_l	arm_add_l	arm_rot_l	elbow_flex_l	pro_sup_l	wrist_flex_l	wrist_dev_l
      4.41500000	     -4.93531288	     -3.65851325	     -3.78997041	      0.82220566	      0.92440212	      0.42339371	     26.81075750	     -0.07974778	    -14.97671282	     11.28225643	     11.28225643	      4.31379056	      3.87062864	      8.60411873	      3.22287268	     -3.64775056	    -11.35829515	     15.25138012	     15.25138012	     17.07500632	    -10.47127333	     -3.65525852	     -7.96444401	      4.77195970	      2.89347834	      8.04005710	    -14.13565761	      3.20831340	     41.05468518	     45.79562916	      0.00000000	      0.00000000	     43.98786591	    -15.81978670	      5.21420455	    110.67138247	     48.60773877	      0.00000000	      0.00000000
      4.42707143	     -4.88523702	     -3.84397465	     -3.77424408	      0.82416443	      0.92308641	      0.42533418	     26.15931263	      0.38499856	    -15.46289575	     10.41907556	     10.41907556	      3.79231576	      4.46411720	      8.60784172	      2.42323195	     -3.94136227	    -11.41374772	     15.13738676	     15.13738676	     17.64432370	    -10.19602277	     -3.59250560	     -7.79221560	      4.98331938	      2.68384444	      7.97162534	    -14.11992285	      3.29387062	     42.08657292	     45.74798820	      0.00000000	      0.00000000	     43.03012938	    -16.11006681	      5.11306354	    109.86611849	     48.59777772	      0.00000000	      0.00000000
      4.43914286	     -4.72745152	     -3.93187297	     -3.73722447	      0.82627144	      0.92163378	      0.42740558	     25.62059093	      0.68577211	    -15.53695491	     10.26937928	     10.26937928	      2.38604133	      4.25504375	      5.31573326	      1.75958677	     -4.23120873	    -11.70308991	     15.60848739	     15.60848739	     19.05658141	     -9.31851633	     -2.09233329	     -7.79618451	      5.03935007	      3.05529285	      6.73689720	    -14.78718688	      4.44384667	     45.92677841	     45.52366293	      0.00000000	      0.00000000	     42.28236454	    -15.76310619	      5.51546620	    108.76205855	     48.59372090	      0.00000000	      0.00000000
      4.45121429	     -4.67985145	     -4.07512800	     -3.68700662	      0.82837143	      0.92021838	      0.42953925	     25.35654683	      0.95658989	    -15.53837532	     10.76216286	     10.76216286	      1.94595861	      4.06413329	      4.99318829	      1.12605981	     -4.52157253	    -11.62325213	     15.79975528	     15.79975528	     19.51857637	     -9.35466981	     -2.14005449	     -7.59285353	      5.17319600	      2.95358803	      6.95173890	    -14.58934218	      4.45273493	     46.37588834	     45.50735661	      0.00000000	      0.00000000	     40.87587053	    -15.75081901	      5.67039642	    108.04453907	     48.56455195	      0.00000000	      0.00000000
      4.46328571	     -4.62048905	     -4.20734204	     -3.58257484	      0.83050223	      0.91870942	      0.43183781	     25.13494947	      1.23656520	    -15.05160501	     11.45743496	     11.45743496	      0.62929477	      2.86379140	      1.92034227	      0.72439095	     -4.91641768	    -11.74005376	     16.50967700	     16.50967700	     20.51691551	     -8.92794414	     -1.37725240	     -7.40766955	      5.28688110	      2.74085634	      6.76714602	    -14.59082951	      4.84008975	     48.54527652	     45.40657214	      0.00000000	      0.00000000	     39.54276769	    -15.70075247	      5.41148062	    106.80547282	     48.56525450	      0.00000000	      0.00000000
      4.47535714	     -4.43967464	     -4.37249135	     -3.46894911	      0.83278741	      0.91752813	      0.43417592	     24.75989142	      1.52153312	    -14.64060249	     12.22924958	     12.22924958	     -0.91577547	      1.63629903	     -1.95969061	      0.18407164	     -5.32539037	    -11.71892982	     17.22702000	     17.22702000	     21.52005530	     -8.63939286	     -0.27511861	     -7.40783732	      5.44060724	      2.92702017	      6.45179839	    -14.89281744	      5.48483744	     50.75771395	     45.29945752	      0.00000000	      0.00000000	     38.22422316	    -15.50832029	      5.92710113	    105.54658990	     48.52722333	      0.00000000	      0.00000000
      4.48742857	     -4.31316905	     -4.53242266	     -3.33319245	      0.83491741	      0.91653712	      0.43656492	     24.70214097	      1.69181097	    -14.34374886	     13.65030474	     13.65030474	     -1.03568409	      0.84507749	     -2.58184032	     -0.18354710	     -5.74219026	    -11.53457612	     18.05338210	     18.05338210	     21.85354754	     -8.89398592	     -0.33499418	     -7.31386266	      5.58831355	      2.67673290	      6.87565742	    -14.63496114	      5.51342726	     51.55424036	     45.27302297	      0.00000000	      0.00000000	     36.60511859	    -15.66047046	      6.12154385	    104.31930553	     48.48528617	      0.00000000	      0.00000000
      4.49950000	     -4.20706193	     -4.67338130	     -3.16549438	      0.83697672	      0.91573105	      0.43901018	     24.67540458	      1.86986883	    -13.85659271	     15.07191009	     15.07191009	     -1.10757687	     -0.33802032	     -3.34329610	     -0.32120665	     -6.20308068	    -11.32323310	     19.25143586	     19.25143586	     22.14461059	     -9.19438397	     -0.36222609	     -7.23130849	      5.71397547	      2.48153206	      7.20270325	    -14.48412959	      5.71036905	     52.89267409	     45.21999250	      0.00000000	      0.00000000	     34.92141086	    -15.62866275	      6.27050461	    102.87083228	     48.44240294	      0.00000000	      0.00000000
      4.51157143	     -3.81302431	     -4.79070591	     -3.01259127	      0.83927674	      0.91601811	      0.44151326	     24.01028161	      2.04170288	    -13.66147817	     15.93226321	     15.93226321	     -0.89861063	     -0.66727857	     -3.61302500	     -0.87417086	     -6.60294918	    -11.16277937	     20.23591088	     20.23591088	     22.04102826	     -9.51780207	     -0.42457884	     -7.57110025	      5.74432642	      2.65578989	      7.68360478	    -14.27902593	      5.75454134	     53.37864856	     45.20354174	      0.00000000	      0.00000000	     33.01736218	    -15.25687703	      6.73417201	    102.06348399	     48.38737583	      0.00000000	      0.00000000
      4.52364286	     -3.85365273	     -5.00377659	     -2.78903229	      0.84091867	      0.91534926	      0.44413916	     24.29073189	      2.35583788	    -12.80282506	     17.54097435	     17.54097435	     -0.68187104	     -2.78254934	     -4.42952011	     -0.22748232	     -7.32177425	    -10.84334008	     22.52266671	     22.52266671	     22.08389133	    -10.10627472	     -0.90738277	     -7.34797471	      6.02948198	      2.65774889	      7.10659706	    -15.04204791	      6.89019690	     57.92903608	     45.00785568	      0.00000000	      0.00000000	     31.79184638	    -14.86718198	      6.79379667	     99.02589661	     48.33290107	      0.00000000	      0.00000000
      4.53571429	     -3.74660486	     -5.10117536	     -2.50797188	      0.84266865	      0.91560875	      0.44664798	     24.08489854	      2.47832333	    -12.61052454	     18.59047580	     18.59047580	     -0.08555805	     -3.50625345	     -4.59407573	      0.26550706	     -7.87543749	    -10.38998905	     24.71243854	     24.71243854	     21.61538559	    -10.83913594	     -1.43092907	     -7.32080311	      6.10041589	      2.31339206	      7.70387254	    -14.81239862	      6.91191434	     59.18587990	     44.97123494	      0.00000000	      0.00000000	     29.88342889	    -14.88926871	      7.06659318	     97.15900806	     48.27179647	      0.00000000	      0.00000000
      4.54778571	     -3.59074552	     -5.22620176	     -2.23873751	      0.84425402	      0.91626671	      0.44924036	     23.74667922	      2.69243867	    -12.30405021	     19.46178174	     19.46178174	      0.77928286	     -4.33867088	     -3.98648753	      0.88754874	     -8.48279278	     -9.88376190	     27.13770806	     27.13770806	     20.42799819	    -11.95888251	     -2.97303422	     -7.41531218	      6.21034614	      2.45967429	      7.68967786	    -15.18905119	      7.38936224	     62.09244199	     44.87043746	      0.00000000	      0.00000000	     28.38228908	    -14.19107213	      7.13381369	     94.31567200	     48.21277749	      0.00000000	      0.00000000
      4.55985714	     -3.40421540	     -5.38428463	     -1.88664408	      0.84571472	      0.91725415	      0.45177086	     23.19074569	      2.88220161	    -12.43607426	     19.97506929	     19.97506929	      1.45883868	     -4.62992023	     -4.10158134	      1.80093876	     -9.19738954	     -9.33426409	     30.10066235	     30.10066235	     19.38403880	    -12.87275837	     -3.51790070	     -7.57229038	      6.31901276	      2.04826448	      8.54652280	    -14.93897875	      7.29264979	     63.25945013	     44.84164249	      0.00000000	      0.00000000	     26.42242889	    -14.19307531	      7.47550321	     92.49893013	     48.14615329	      0.00000000	      0.00000000
      4.57192857	     -3.36207632	     -5.43100992	     -1.54632892	      0.84693121	      0.91822718	      0.45423216	     22.74955515	      2.99154430	    -12.46703034	     20.39716454	     20.39716454	      2.56879919	     -4.80187433	     -3.03727104	      2.99979083	     -9.77128911	     -8.64981533	     33.07800273	     33.07800273	     16.94295491	    -14.50756081	     -6.51179202	     -7.56682367	      6.35772530	      2.39867521	      8.10132749	    -15.52580313	      7.45965071	     67.21247666	     44.73968667	      0.00000000	      0.00000000	     25.29212068	    -13.27360837	      7.78669677	     88.61655865	     48.05239059	      0.00000000	      0.00000000
